<?xml version="1.0" encoding="utf-8"?>
<!-- Generator: Adobe Illustrator 22.1.0, SVG Export Plug-In . SVG Version: 6.00 Build 0)  -->
<svg version="1.1" id="Layer_1" xmlns="http://www.w3.org/2000/svg" xmlns:xlink="http://www.w3.org/1999/xlink" x="0px" y="0px"
	 viewBox="0 0 256 256" style="enable-background:new 0 0 256 256;" xml:space="preserve">
<style type="text/css">
	.st0{fill:#D8D6D7;}
	.st1{fill:#56C1B3;}
	.st2{fill:#7BEFE4;}
	.st3{fill:#FFFFFF;}
	.st4{fill:#F85252;}
	.st5{fill:#491352;}
</style>
<g>
	<path class="st0" d="M245.36,2.75H10.64c-2.761,0-5,2.239-5,5v152.897c0,2.761,2.239,5,5,5h234.72c2.761,0,5-2.239,5-5V7.75
		C250.36,4.989,248.121,2.75,245.36,2.75z"/>
	<path class="st1" d="M232.36,16H23.64c-2.76,0-5,2.24-5,5v126.9c0,2.76,2.24,5,5,5h208.72c2.76,0,5-2.24,5-5V21
		C237.36,18.24,235.12,16,232.36,16z"/>
	<path class="st2" d="M232.36,15.75H45.39c-2.761,0-5,2.239-5,5v126.9c0,2.761,2.239,5,5,5h186.97c2.761,0,5-2.239,5-5V20.75
		C237.36,17.989,235.121,15.75,232.36,15.75z"/>
	<rect x="114.17" y="165.65" class="st0" width="27.66" height="65.93"/>
	<rect x="131.09" y="165.65" class="st3" width="10.74" height="65.93"/>
	<path class="st0" d="M191.67,236.58v11.67c0,2.76-2.24,5-5,5H69.33c-2.76,0-5-2.24-5-5v-11.67c0-2.76,2.24-5,5-5h117.34
		C189.43,231.58,191.67,233.82,191.67,236.58z"/>
	<path class="st3" d="M191.67,236.58v11.67c0,2.76-2.24,5-5,5H85.33c-2.76,0-5-2.24-5-5v-11.67c0-2.76,2.24-5,5-5h101.34
		C189.43,231.58,191.67,233.82,191.67,236.58z"/>
	<path class="st3" d="M167,65.5c0,12.79-6.157,24.144-15.672,31.252c-6.498,4.866-14.577,7.748-23.328,7.748
		s-16.829-2.882-23.328-7.748C95.157,89.644,89,78.29,89,65.5c0-21.54,17.46-39,39-39S167,43.96,167,65.5z"/>
	<path class="st4" d="M151.328,86.307v10.445c-6.498,4.866-14.577,7.748-23.328,7.748s-16.829-2.882-23.328-7.748V86.307
		c0-4.174,1.116-8.193,3.13-11.674c2.015-3.492,4.938-6.457,8.554-8.544c1.219-0.703,2.479-1.271,3.771-1.736
		c-3.285-2.417-5.434-6.302-5.434-10.703c0-7.346,5.961-13.296,13.306-13.296c7.345,0,13.306,5.951,13.306,13.296
		c0,4.401-2.149,8.286-5.434,10.703c1.291,0.465,2.552,1.033,3.771,1.736C146.875,70.252,151.328,77.959,151.328,86.307z"/>
	<path class="st3" d="M176.937,141.25H79.062c-5.523,0-10-4.477-10-10v-6.5c0-5.523,4.477-10,10-10h97.875c5.523,0,10,4.477,10,10
		v6.5C186.937,136.773,182.46,141.25,176.937,141.25z"/>
	<g>
		<path class="st5" d="M245.36,0.75H10.64c-3.859,0-7,3.14-7,7v152.896c0,3.86,3.141,7,7,7h101.53v61.932H69.333
			c-3.859,0-7,3.14-7,7v11.671c0,3.86,3.141,7,7,7h117.334c3.859,0,7-3.14,7-7v-11.671c0-3.86-3.141-7-7-7H143.83v-61.932h101.53
			c3.859,0,7-3.14,7-7V7.75C252.36,3.89,249.22,0.75,245.36,0.75z M186.667,233.579c1.654,0,3,1.345,3,3v11.671c0,1.654-1.346,3-3,3
			H69.333c-1.654,0-3-1.346-3-3v-11.671c0-1.654,1.346-3,3-3h44.822c0.005,0,0.01,0.001,0.015,0.001h27.66
			c0.005,0,0.01-0.001,0.015-0.001H186.667z M116.17,229.579v-61.932h23.66v61.932H116.17z M248.36,160.646c0,1.654-1.346,3-3,3
			H10.64c-1.654,0-3-1.346-3-3V7.75c0-1.654,1.346-3,3-3h234.72c1.654,0,3,1.346,3,3V160.646z"/>
		<path class="st5" d="M232.36,13.75H23.641c-3.859,0-7,3.14-7,7v126.896c0,3.86,3.141,7,7,7h208.72c3.859,0,7-3.14,7-7V20.75
			C239.36,16.89,236.22,13.75,232.36,13.75z M235.361,147.646h-0.001c0,1.654-1.346,3-3,3H23.641c-1.654,0-3-1.346-3-3V20.75
			c0-1.654,1.346-3,3-3h208.72c1.654,0,3,1.346,3,3V147.646z"/>
		<path class="st5" d="M128,106.5c22.251,0,41-17.899,41-41c0-22.607-18.393-41-41-41s-41,18.393-41,41
			C87,88.598,105.746,106.5,128,106.5z M149.33,95.727c-12.771,9.056-29.938,9.026-42.658-0.001v-9.418
			c0-3.747,0.989-7.437,2.863-10.675c2.417-4.19,6.297-7.607,11.27-9.397c1.503-0.54,1.797-2.545,0.509-3.493
			c-2.937-2.16-4.62-5.474-4.62-9.092c0-6.229,5.072-11.296,11.307-11.296c6.235,0,11.307,5.067,11.307,11.296
			c0,3.618-1.684,6.932-4.62,9.092c-1.286,0.946-0.996,2.952,0.509,3.493c8.796,3.168,14.133,11.41,14.133,20.072V95.727z M128,28.5
			c20.402,0,37,16.598,37,37c0,10.38-4.21,19.999-11.672,26.97v-6.163c0-9.73-5.59-18.398-13.84-22.574
			c2.43-2.768,3.818-6.357,3.818-10.083c0-8.435-6.866-15.296-15.307-15.296c-8.441,0-15.307,6.862-15.307,15.296
			c0,3.725,1.389,7.314,3.818,10.083c-4.234,2.138-7.952,5.585-10.44,9.898c-2.224,3.844-3.399,8.227-3.399,12.676v6.162
			C95.21,85.5,91,75.881,91,65.5C91,45.098,107.598,28.5,128,28.5z"/>
		<path class="st5" d="M176.937,112.75H79.062c-6.617,0-12,5.383-12,12v6.5c0,6.617,5.383,12,12,12h97.875c6.617,0,12-5.383,12-12
			v-6.5C188.937,118.133,183.555,112.75,176.937,112.75z M184.937,131.25c0,4.411-3.589,8-8,8H79.062c-4.411,0-8-3.589-8-8v-6.5
			c0-4.411,3.589-8,8-8h97.875c4.411,0,8,3.589,8,8V131.25z"/>
		<path class="st5" d="M112.789,123.792c-0.554-0.957-1.777-1.287-2.732-0.732l-2.557,1.476v-2.952c0-1.104-0.896-2-2-2
			s-2,0.896-2,2v2.952l-2.557-1.476c-0.96-0.555-2.18-0.225-2.732,0.732c-0.552,0.957-0.225,2.18,0.732,2.732L101.5,128
			l-2.557,1.477c-0.957,0.552-1.284,1.775-0.732,2.732c0.555,0.959,1.781,1.283,2.732,0.732l2.557-1.476v2.952c0,1.104,0.896,2,2,2
			s2-0.896,2-2v-2.952l2.557,1.476c0.958,0.553,2.179,0.225,2.732-0.732c0.552-0.957,0.225-2.18-0.732-2.732L109.5,128l2.557-1.477
			C113.014,125.971,113.341,124.748,112.789,123.792z"/>
		<path class="st5" d="M135.289,123.792c-0.554-0.957-1.777-1.287-2.732-0.732L130,124.536v-2.952c0-1.104-0.896-2-2-2s-2,0.896-2,2
			v2.952l-2.557-1.476c-0.96-0.555-2.18-0.225-2.732,0.732c-0.552,0.957-0.225,2.18,0.732,2.732L124,128l-2.557,1.477
			c-0.957,0.552-1.284,1.775-0.732,2.732c0.555,0.959,1.781,1.283,2.732,0.732l2.557-1.476v2.952c0,1.104,0.896,2,2,2s2-0.896,2-2
			v-2.952l2.557,1.476c0.958,0.553,2.179,0.225,2.732-0.732c0.552-0.957,0.225-2.18-0.732-2.732L132,128l2.557-1.477
			C135.514,125.971,135.841,124.748,135.289,123.792z"/>
		<path class="st5" d="M157.789,123.792c-0.553-0.957-1.777-1.287-2.732-0.732l-2.557,1.476v-2.952c0-1.104-0.896-2-2-2
			s-2,0.896-2,2v2.952l-2.557-1.476c-0.961-0.555-2.18-0.225-2.732,0.732c-0.552,0.957-0.225,2.18,0.732,2.732L146.5,128
			l-2.557,1.477c-0.957,0.552-1.284,1.775-0.732,2.732c0.555,0.959,1.781,1.283,2.732,0.732l2.557-1.476v2.952c0,1.104,0.896,2,2,2
			s2-0.896,2-2v-2.952l2.557,1.476c0.958,0.553,2.179,0.225,2.732-0.732c0.552-0.957,0.225-2.18-0.732-2.732L154.5,128l2.557-1.477
			C158.014,125.971,158.341,124.748,157.789,123.792z"/>
	</g>
</g>
</svg>
